# xmcd
#
# Track frame offsets: 
#        183
#        19553
#        43378
#        68243
#        82950
#        108205
#        148118
#        180833
#        204290
#        241895
#        288115
#
# Disc length: 4342 seconds
#
# Revision: 0
# Processed by: cddbd v1.5.1PL2 Copyright (c) Steve Scherf et al.
# Submitted via: ExactAudioCopy v0.95b3
#
DISCID=8a10f40b
DTITLE=Melissa Etheridge - Grater Lady
DYEAR=1900
DGENRE=Country
TTITLE0=Brave And Crazy
TTITLE1=Place Your Hand
TTITLE2=You Can Sleep While I Drive
TTITLE3=Occasionally
TTITLE4=Dance Without Sleeping
TTITLE5=Keep It Precious
TTITLE6=Must Be Crazy For Me
TTITLE7=Bring Me Some Water
TTITLE8=Meet Me In The Back
TTITLE9=Like The Way I Do
TTITLE10=2001
EXTD=
EXTT0=
EXTT1=
EXTT2=
EXTT3=
EXTT4=
EXTT5=
EXTT6=
EXTT7=
EXTT8=
EXTT9=
EXTT10=
PLAYORDER=
